<?xml version="1.0" encoding="UTF-8" standalone="no"?>
<!DOCTYPE svg PUBLIC "-//W3C//DTD SVG 1.1//EN"
 "http://www.w3.org/Graphics/SVG/1.1/DTD/svg11.dtd">
<!-- Generated by graphviz version 9.0.0 (20230911.1827)
 -->
<!-- Pages: 1 -->
<svg width="1960pt" height="980pt"
 viewBox="0.00 0.00 1960.00 980.00" xmlns="http://www.w3.org/2000/svg" xmlns:xlink="http://www.w3.org/1999/xlink">
<g id="graph0" class="graph" transform="scale(1 1) rotate(0) translate(4 976)">
<polygon fill="white" stroke="none" points="-4,4 -4,-976 1956,-976 1956,4 -4,4"/>
<!-- fx -->
<g id="node1" class="node">
<title>fx</title>
<ellipse fill="none" stroke="black" cx="1183" cy="-882" rx="27" ry="18"/>
<text text-anchor="middle" x="1183" y="-876.58" font-family="Times New Roman,serif" font-size="14.00">fx</text>
</g>
<!-- kh -->
<g id="node2" class="node">
<title>kh</title>
<ellipse fill="none" stroke="black" cx="1238" cy="-810" rx="27" ry="18"/>
<text text-anchor="middle" x="1238" y="-804.58" font-family="Times New Roman,serif" font-size="14.00">kh</text>
</g>
<!-- fx&#45;&gt;kh -->
<g id="edge1" class="edge">
<title>fx&#45;&gt;kh</title>
<path fill="none" stroke="black" d="M1195.21,-865.46C1202.11,-856.67 1210.91,-845.48 1218.73,-835.53"/>
<polygon fill="black" stroke="black" points="1221.47,-837.71 1224.89,-827.68 1215.96,-833.38 1221.47,-837.71"/>
</g>
<!-- hl -->
<g id="node3" class="node">
<title>hl</title>
<ellipse fill="none" stroke="black" cx="1230" cy="-666" rx="27" ry="18"/>
<text text-anchor="middle" x="1230" y="-660.58" font-family="Times New Roman,serif" font-size="14.00">hl</text>
</g>
<!-- fx&#45;&gt;hl -->
<g id="edge2" class="edge">
<title>fx&#45;&gt;hl</title>
<path fill="none" stroke="black" d="M1186.59,-863.93C1190.37,-846 1196.53,-817 1202,-792 1209.3,-758.62 1217.93,-720.27 1223.65,-694.95"/>
<polygon fill="black" stroke="black" points="1227.01,-695.97 1225.81,-685.45 1220.18,-694.43 1227.01,-695.97"/>
</g>
<!-- ck -->
<g id="node58" class="node">
<title>ck</title>
<ellipse fill="none" stroke="black" cx="1285" cy="-738" rx="27" ry="18"/>
<text text-anchor="middle" x="1285" y="-732.58" font-family="Times New Roman,serif" font-size="14.00">ck</text>
</g>
<!-- kh&#45;&gt;ck -->
<g id="edge88" class="edge">
<title>kh&#45;&gt;ck</title>
<path fill="none" stroke="black" d="M1248.67,-793.12C1254.37,-784.61 1261.54,-773.94 1268,-764.32"/>
<polygon fill="black" stroke="black" points="1270.86,-766.33 1273.53,-756.08 1265.05,-762.43 1270.86,-766.33"/>
</g>
<!-- hl&#45;&gt;kh -->
<g id="edge89" class="edge">
<title>hl&#45;&gt;kh</title>
<path fill="none" stroke="black" d="M1230.96,-684.11C1232.31,-707.92 1234.75,-751.37 1236.38,-780.22"/>
<polygon fill="black" stroke="black" points="1232.88,-780.29 1236.93,-790.08 1239.87,-779.9 1232.88,-780.29"/>
</g>
<!-- lm -->
<g id="node34" class="node">
<title>lm</title>
<ellipse fill="none" stroke="black" cx="1027" cy="-594" rx="27" ry="18"/>
<text text-anchor="middle" x="1027" y="-588.58" font-family="Times New Roman,serif" font-size="14.00">lm</text>
</g>
<!-- hl&#45;&gt;lm -->
<g id="edge90" class="edge">
<title>hl&#45;&gt;lm</title>
<path fill="none" stroke="black" d="M1205.3,-658.28C1172.39,-649.08 1112.55,-631.46 1063,-612 1061.47,-611.4 1059.92,-610.76 1058.36,-610.11"/>
<polygon fill="black" stroke="black" points="1060.06,-607.03 1049.5,-606.16 1057.21,-613.43 1060.06,-607.03"/>
</g>
<!-- ct -->
<g id="node35" class="node">
<title>ct</title>
<ellipse fill="none" stroke="black" cx="1399" cy="-594" rx="27" ry="18"/>
<text text-anchor="middle" x="1399" y="-588.58" font-family="Times New Roman,serif" font-size="14.00">ct</text>
</g>
<!-- hl&#45;&gt;ct -->
<g id="edge91" class="edge">
<title>hl&#45;&gt;ct</title>
<path fill="none" stroke="black" d="M1252.66,-655.62C1278.24,-645.03 1321.11,-627.28 1358,-612 1360.62,-610.92 1363.33,-609.79 1366.05,-608.66"/>
<polygon fill="black" stroke="black" points="1367.15,-612 1375.05,-604.93 1364.47,-605.53 1367.15,-612"/>
</g>
<!-- rt -->
<g id="node38" class="node">
<title>rt</title>
<ellipse fill="none" stroke="black" cx="1099" cy="-594" rx="27" ry="18"/>
<text text-anchor="middle" x="1099" y="-588.58" font-family="Times New Roman,serif" font-size="14.00">rt</text>
</g>
<!-- hl&#45;&gt;rt -->
<g id="edge92" class="edge">
<title>hl&#45;&gt;rt</title>
<path fill="none" stroke="black" d="M1207.54,-655.56C1185.24,-644.77 1151.29,-626.84 1127.22,-613.29"/>
<polygon fill="black" stroke="black" points="1128.98,-610.27 1118.56,-608.35 1125.51,-616.35 1128.98,-610.27"/>
</g>
<!-- kk -->
<g id="node39" class="node">
<title>kk</title>
<ellipse fill="none" stroke="black" cx="1137" cy="-522" rx="27" ry="18"/>
<text text-anchor="middle" x="1137" y="-516.58" font-family="Times New Roman,serif" font-size="14.00">kk</text>
</g>
<!-- hl&#45;&gt;kk -->
<g id="edge93" class="edge">
<title>hl&#45;&gt;kk</title>
<path fill="none" stroke="black" d="M1213.96,-651.37C1202.84,-641.31 1188.25,-626.86 1178,-612 1164.8,-592.86 1154.01,-568.8 1146.82,-550.52"/>
<polygon fill="black" stroke="black" points="1150.18,-549.5 1143.35,-541.4 1143.63,-551.99 1150.18,-549.5"/>
</g>
<!-- ld -->
<g id="node41" class="node">
<title>ld</title>
<ellipse fill="none" stroke="black" cx="1156" cy="-450" rx="27" ry="18"/>
<text text-anchor="middle" x="1156" y="-444.57" font-family="Times New Roman,serif" font-size="14.00">ld</text>
</g>
<!-- hl&#45;&gt;ld -->
<g id="edge94" class="edge">
<title>hl&#45;&gt;ld</title>
<path fill="none" stroke="black" d="M1224.19,-648.21C1211.5,-611.5 1181.17,-523.79 1165.59,-478.74"/>
<polygon fill="black" stroke="black" points="1168.95,-477.75 1162.38,-469.44 1162.34,-480.04 1168.95,-477.75"/>
</g>
<!-- nv -->
<g id="node4" class="node">
<title>nv</title>
<ellipse fill="none" stroke="black" cx="1156" cy="-378" rx="27" ry="18"/>
<text text-anchor="middle" x="1156" y="-372.57" font-family="Times New Roman,serif" font-size="14.00">nv</text>
</g>
<!-- nv&#45;&gt;fx -->
<g id="edge3" class="edge">
<title>nv&#45;&gt;fx</title>
<path fill="none" stroke="black" d="M1131.18,-385.48C1080.96,-400.27 972,-441.51 972,-521 972,-595 972,-595 972,-595 972,-716.91 1097.67,-820.99 1155.04,-862.16"/>
<polygon fill="black" stroke="black" points="1152.85,-864.89 1163.04,-867.79 1156.88,-859.17 1152.85,-864.89"/>
</g>
<!-- nv&#45;&gt;hl -->
<g id="edge4" class="edge">
<title>nv&#45;&gt;hl</title>
<path fill="none" stroke="black" d="M1168.96,-394.21C1176.86,-404.29 1186.46,-418.16 1192,-432 1219.92,-501.73 1227.34,-591.04 1229.3,-636.15"/>
<polygon fill="black" stroke="black" points="1225.81,-636.27 1229.67,-646.14 1232.8,-636.02 1225.81,-636.27"/>
</g>
<!-- vm -->
<g id="node5" class="node">
<title>vm</title>
<ellipse fill="none" stroke="black" cx="940" cy="-810" rx="27" ry="18"/>
<text text-anchor="middle" x="940" y="-804.58" font-family="Times New Roman,serif" font-size="14.00">vm</text>
</g>
<!-- zg -->
<g id="node6" class="node">
<title>zg</title>
<ellipse fill="none" stroke="black" cx="906" cy="-522" rx="27" ry="18"/>
<text text-anchor="middle" x="906" y="-516.58" font-family="Times New Roman,serif" font-size="14.00">zg</text>
</g>
<!-- vm&#45;&gt;zg -->
<g id="edge5" class="edge">
<title>vm&#45;&gt;zg</title>
<path fill="none" stroke="black" d="M937.97,-791.97C932.34,-744.59 916.45,-610.87 909.42,-551.73"/>
<polygon fill="black" stroke="black" points="912.89,-551.33 908.24,-541.81 905.94,-552.15 912.89,-551.33"/>
</g>
<!-- rx -->
<g id="node59" class="node">
<title>rx</title>
<ellipse fill="none" stroke="black" cx="906" cy="-450" rx="27" ry="18"/>
<text text-anchor="middle" x="906" y="-444.57" font-family="Times New Roman,serif" font-size="14.00">rx</text>
</g>
<!-- zg&#45;&gt;rx -->
<g id="edge109" class="edge">
<title>zg&#45;&gt;rx</title>
<path fill="none" stroke="black" d="M906,-503.7C906,-496.41 906,-487.73 906,-479.54"/>
<polygon fill="black" stroke="black" points="909.5,-479.62 906,-469.62 902.5,-479.62 909.5,-479.62"/>
</g>
<!-- rr -->
<g id="node7" class="node">
<title>rr</title>
<ellipse fill="none" stroke="black" cx="1642" cy="-450" rx="27" ry="18"/>
<text text-anchor="middle" x="1642" y="-444.57" font-family="Times New Roman,serif" font-size="14.00">rr</text>
</g>
<!-- rl -->
<g id="node8" class="node">
<title>rl</title>
<ellipse fill="none" stroke="black" cx="1642" cy="-378" rx="27" ry="18"/>
<text text-anchor="middle" x="1642" y="-372.57" font-family="Times New Roman,serif" font-size="14.00">rl</text>
</g>
<!-- rr&#45;&gt;rl -->
<g id="edge6" class="edge">
<title>rr&#45;&gt;rl</title>
<path fill="none" stroke="black" d="M1642,-431.7C1642,-424.41 1642,-415.73 1642,-407.54"/>
<polygon fill="black" stroke="black" points="1645.5,-407.62 1642,-397.62 1638.5,-407.62 1645.5,-407.62"/>
</g>
<!-- ql -->
<g id="node9" class="node">
<title>ql</title>
<ellipse fill="none" stroke="black" cx="1697" cy="-954" rx="27" ry="18"/>
<text text-anchor="middle" x="1697" y="-948.58" font-family="Times New Roman,serif" font-size="14.00">ql</text>
</g>
<!-- rr&#45;&gt;ql -->
<g id="edge7" class="edge">
<title>rr&#45;&gt;ql</title>
<path fill="none" stroke="black" d="M1636.47,-467.84C1628.31,-494.21 1614,-547.02 1614,-593 1614,-739 1614,-739 1614,-739 1614,-811.43 1655.84,-888.89 1680.11,-927.72"/>
<polygon fill="black" stroke="black" points="1677,-929.36 1685.33,-935.9 1682.9,-925.59 1677,-929.36"/>
</g>
<!-- rl&#45;&gt;ql -->
<g id="edge107" class="edge">
<title>rl&#45;&gt;ql</title>
<path fill="none" stroke="black" d="M1668.39,-382.41C1729.58,-391.93 1876,-424.77 1876,-521 1876,-811 1876,-811 1876,-811 1876,-883.62 1784.46,-924.99 1732.31,-942.67"/>
<polygon fill="black" stroke="black" points="1731.38,-939.29 1722.95,-945.72 1733.55,-945.95 1731.38,-939.29"/>
</g>
<!-- vh -->
<g id="node57" class="node">
<title>vh</title>
<ellipse fill="none" stroke="black" cx="1585" cy="-306" rx="27" ry="18"/>
<text text-anchor="middle" x="1585" y="-300.57" font-family="Times New Roman,serif" font-size="14.00">vh</text>
</g>
<!-- rl&#45;&gt;vh -->
<g id="edge108" class="edge">
<title>rl&#45;&gt;vh</title>
<path fill="none" stroke="black" d="M1629.63,-361.81C1622.31,-352.82 1612.87,-341.23 1604.57,-331.03"/>
<polygon fill="black" stroke="black" points="1607.33,-328.88 1598.3,-323.33 1601.9,-333.3 1607.33,-328.88"/>
</g>
<!-- ql&#45;&gt;vm -->
<g id="edge58" class="edge">
<title>ql&#45;&gt;vm</title>
<path fill="none" stroke="black" d="M1669.59,-953.33C1588.4,-953.67 1342.6,-950.17 1147,-900 1081.4,-883.18 1009.86,-848.4 970.41,-827.65"/>
<polygon fill="black" stroke="black" points="972.21,-824.64 961.73,-823.03 968.92,-830.82 972.21,-824.64"/>
</g>
<!-- jr -->
<g id="node48" class="node">
<title>jr</title>
<ellipse fill="none" stroke="black" cx="1585" cy="-882" rx="27" ry="18"/>
<text text-anchor="middle" x="1585" y="-876.58" font-family="Times New Roman,serif" font-size="14.00">jr</text>
</g>
<!-- ql&#45;&gt;jr -->
<g id="edge59" class="edge">
<title>ql&#45;&gt;jr</title>
<path fill="none" stroke="black" d="M1675.52,-942.67C1657.07,-932.31 1630.68,-916.07 1611.07,-903.15"/>
<polygon fill="black" stroke="black" points="1613.02,-900.25 1602.76,-897.59 1609.12,-906.06 1613.02,-900.25"/>
</g>
<!-- ln -->
<g id="node50" class="node">
<title>ln</title>
<ellipse fill="none" stroke="black" cx="1669" cy="-522" rx="27" ry="18"/>
<text text-anchor="middle" x="1669" y="-516.58" font-family="Times New Roman,serif" font-size="14.00">ln</text>
</g>
<!-- ql&#45;&gt;ln -->
<g id="edge60" class="edge">
<title>ql&#45;&gt;ln</title>
<path fill="none" stroke="black" d="M1690.93,-936.06C1678.65,-900.2 1652,-813.79 1652,-739 1652,-739 1652,-739 1652,-665 1652,-625.24 1658.65,-579.67 1663.63,-551.1"/>
<polygon fill="black" stroke="black" points="1667.04,-551.92 1665.37,-541.46 1660.15,-550.68 1667.04,-551.92"/>
</g>
<!-- xs -->
<g id="node51" class="node">
<title>xs</title>
<ellipse fill="none" stroke="black" cx="1707" cy="-810" rx="27" ry="18"/>
<text text-anchor="middle" x="1707" y="-804.58" font-family="Times New Roman,serif" font-size="14.00">xs</text>
</g>
<!-- ql&#45;&gt;xs -->
<g id="edge61" class="edge">
<title>ql&#45;&gt;xs</title>
<path fill="none" stroke="black" d="M1698.23,-935.59C1699.91,-911.61 1702.98,-868.14 1705,-839.42"/>
<polygon fill="black" stroke="black" points="1708.48,-839.84 1705.69,-829.62 1701.49,-839.35 1708.48,-839.84"/>
</g>
<!-- mg -->
<g id="node52" class="node">
<title>mg</title>
<ellipse fill="none" stroke="black" cx="1745" cy="-738" rx="27" ry="18"/>
<text text-anchor="middle" x="1745" y="-732.58" font-family="Times New Roman,serif" font-size="14.00">mg</text>
</g>
<!-- ql&#45;&gt;mg -->
<g id="edge62" class="edge">
<title>ql&#45;&gt;mg</title>
<path fill="none" stroke="black" d="M1705.07,-936.52C1716.08,-913.08 1735.33,-868.44 1743,-828 1746.77,-808.11 1747.21,-785.27 1746.74,-767.71"/>
<polygon fill="black" stroke="black" points="1750.23,-767.6 1746.34,-757.75 1743.24,-767.88 1750.23,-767.6"/>
</g>
<!-- bc -->
<g id="node10" class="node">
<title>bc</title>
<ellipse fill="none" stroke="black" cx="653" cy="-666" rx="27" ry="18"/>
<text text-anchor="middle" x="653" y="-660.58" font-family="Times New Roman,serif" font-size="14.00">bc</text>
</g>
<!-- rn -->
<g id="node11" class="node">
<title>rn</title>
<ellipse fill="none" stroke="black" cx="579" cy="-522" rx="27" ry="18"/>
<text text-anchor="middle" x="579" y="-516.58" font-family="Times New Roman,serif" font-size="14.00">rn</text>
</g>
<!-- bc&#45;&gt;rn -->
<g id="edge8" class="edge">
<title>bc&#45;&gt;rn</title>
<path fill="none" stroke="black" d="M642.35,-649.07C635.61,-638.71 626.89,-624.79 620,-612 609.09,-591.76 598.27,-568.08 590.49,-550.24"/>
<polygon fill="black" stroke="black" points="593.72,-548.89 586.55,-541.1 587.29,-551.66 593.72,-548.89"/>
</g>
<!-- pm -->
<g id="node12" class="node">
<title>pm</title>
<ellipse fill="none" stroke="black" cx="617" cy="-450" rx="27" ry="18"/>
<text text-anchor="middle" x="617" y="-444.57" font-family="Times New Roman,serif" font-size="14.00">pm</text>
</g>
<!-- bc&#45;&gt;pm -->
<g id="edge9" class="edge">
<title>bc&#45;&gt;pm</title>
<path fill="none" stroke="black" d="M650.11,-647.85C643.94,-611.14 629.39,-524.66 621.8,-479.53"/>
<polygon fill="black" stroke="black" points="625.26,-479.01 620.15,-469.73 618.36,-480.17 625.26,-479.01"/>
</g>
<!-- rp -->
<g id="node13" class="node">
<title>rp</title>
<ellipse fill="none" stroke="black" cx="677" cy="-882" rx="27" ry="18"/>
<text text-anchor="middle" x="677" y="-876.58" font-family="Times New Roman,serif" font-size="14.00">rp</text>
</g>
<!-- bc&#45;&gt;rp -->
<g id="edge10" class="edge">
<title>bc&#45;&gt;rp</title>
<path fill="none" stroke="black" d="M658.76,-683.94C666.39,-720.53 676.43,-807.34 678.57,-852.54"/>
<polygon fill="black" stroke="black" points="675.07,-852.46 678.9,-862.34 682.06,-852.22 675.07,-852.46"/>
</g>
<!-- xg -->
<g id="node14" class="node">
<title>xg</title>
<ellipse fill="none" stroke="black" cx="674" cy="-306" rx="27" ry="18"/>
<text text-anchor="middle" x="674" y="-300.57" font-family="Times New Roman,serif" font-size="14.00">xg</text>
</g>
<!-- bc&#45;&gt;xg -->
<g id="edge11" class="edge">
<title>bc&#45;&gt;xg</title>
<path fill="none" stroke="black" d="M663.99,-649.22C680.55,-623.85 710,-571.88 710,-523 710,-523 710,-523 710,-449 710,-408.09 695.79,-362.54 685.22,-334.32"/>
<polygon fill="black" stroke="black" points="688.53,-333.17 681.66,-325.11 682.01,-335.7 688.53,-333.17"/>
</g>
<!-- fv -->
<g id="node15" class="node">
<title>fv</title>
<ellipse fill="none" stroke="black" cx="841" cy="-594" rx="27" ry="18"/>
<text text-anchor="middle" x="841" y="-588.58" font-family="Times New Roman,serif" font-size="14.00">fv</text>
</g>
<!-- bc&#45;&gt;fv -->
<g id="edge12" class="edge">
<title>bc&#45;&gt;fv</title>
<path fill="none" stroke="black" d="M676.81,-656.8C705.98,-646.67 756.87,-628.71 800,-612 802.64,-610.98 805.37,-609.9 808.1,-608.8"/>
<polygon fill="black" stroke="black" points="809.18,-612.14 817.12,-605.12 806.54,-605.66 809.18,-612.14"/>
</g>
<!-- tn -->
<g id="node16" class="node">
<title>tn</title>
<ellipse fill="none" stroke="black" cx="431" cy="-594" rx="27" ry="18"/>
<text text-anchor="middle" x="431" y="-588.58" font-family="Times New Roman,serif" font-size="14.00">tn</text>
</g>
<!-- bc&#45;&gt;tn -->
<g id="edge13" class="edge">
<title>bc&#45;&gt;tn</title>
<path fill="none" stroke="black" d="M627.84,-658.56C592.63,-649.33 526.81,-631.32 472,-612 469.27,-611.04 466.45,-609.99 463.63,-608.9"/>
<polygon fill="black" stroke="black" points="464.95,-605.66 454.36,-605.18 462.34,-612.15 464.95,-605.66"/>
</g>
<!-- rn&#45;&gt;pm -->
<g id="edge41" class="edge">
<title>rn&#45;&gt;pm</title>
<path fill="none" stroke="black" d="M587.81,-504.76C592.27,-496.55 597.8,-486.37 602.84,-477.09"/>
<polygon fill="black" stroke="black" points="605.82,-478.94 607.51,-468.48 599.67,-475.6 605.82,-478.94"/>
</g>
<!-- tt -->
<g id="node44" class="node">
<title>tt</title>
<ellipse fill="none" stroke="black" cx="655" cy="-378" rx="27" ry="18"/>
<text text-anchor="middle" x="655" y="-372.57" font-family="Times New Roman,serif" font-size="14.00">tt</text>
</g>
<!-- pm&#45;&gt;tt -->
<g id="edge47" class="edge">
<title>pm&#45;&gt;tt</title>
<path fill="none" stroke="black" d="M625.81,-432.76C630.27,-424.55 635.8,-414.37 640.84,-405.09"/>
<polygon fill="black" stroke="black" points="643.82,-406.94 645.51,-396.48 637.67,-403.6 643.82,-406.94"/>
</g>
<!-- rp&#45;&gt;bc -->
<g id="edge95" class="edge">
<title>rp&#45;&gt;bc</title>
<path fill="none" stroke="black" d="M671.27,-864.21C663.65,-827.74 653.61,-740.96 651.44,-695.65"/>
<polygon fill="black" stroke="black" points="654.94,-695.7 651.1,-685.82 647.95,-695.94 654.94,-695.7"/>
</g>
<!-- fh -->
<g id="node45" class="node">
<title>fh</title>
<ellipse fill="none" stroke="black" cx="613" cy="-810" rx="27" ry="18"/>
<text text-anchor="middle" x="613" y="-804.58" font-family="Times New Roman,serif" font-size="14.00">fh</text>
</g>
<!-- rp&#45;&gt;fh -->
<g id="edge96" class="edge">
<title>rp&#45;&gt;fh</title>
<path fill="none" stroke="black" d="M663.43,-866.15C654.94,-856.87 643.83,-844.73 634.2,-834.19"/>
<polygon fill="black" stroke="black" points="636.91,-831.96 627.57,-826.94 631.74,-836.68 636.91,-831.96"/>
</g>
<!-- xm -->
<g id="node17" class="node">
<title>xm</title>
<ellipse fill="none" stroke="black" cx="674" cy="-234" rx="27" ry="18"/>
<text text-anchor="middle" x="674" y="-228.57" font-family="Times New Roman,serif" font-size="14.00">xm</text>
</g>
<!-- xg&#45;&gt;xm -->
<g id="edge14" class="edge">
<title>xg&#45;&gt;xm</title>
<path fill="none" stroke="black" d="M674,-287.7C674,-280.41 674,-271.73 674,-263.54"/>
<polygon fill="black" stroke="black" points="677.5,-263.62 674,-253.62 670.5,-263.62 677.5,-263.62"/>
</g>
<!-- fv&#45;&gt;zg -->
<g id="edge57" class="edge">
<title>fv&#45;&gt;zg</title>
<path fill="none" stroke="black" d="M854.78,-578.15C863.4,-568.87 874.68,-556.73 884.46,-546.19"/>
<polygon fill="black" stroke="black" points="886.97,-548.64 891.21,-538.93 881.84,-543.88 886.97,-548.64"/>
</g>
<!-- tn&#45;&gt;rn -->
<g id="edge104" class="edge">
<title>tn&#45;&gt;rn</title>
<path fill="none" stroke="black" d="M452.52,-582.82C477.4,-571.05 518.59,-551.57 547.18,-538.05"/>
<polygon fill="black" stroke="black" points="548.54,-541.28 556.09,-533.84 545.55,-534.95 548.54,-541.28"/>
</g>
<!-- xm&#45;&gt;bc -->
<g id="edge63" class="edge">
<title>xm&#45;&gt;bc</title>
<path fill="none" stroke="black" d="M651.22,-243.99C609.26,-262.23 524,-307.79 524,-377 524,-523 524,-523 524,-523 524,-581.24 584.19,-626.18 622.35,-648.8"/>
<polygon fill="black" stroke="black" points="620.26,-651.64 630.67,-653.58 623.74,-645.57 620.26,-651.64"/>
</g>
<!-- xn -->
<g id="node27" class="node">
<title>xn</title>
<ellipse fill="none" stroke="black" cx="703" cy="-162" rx="27" ry="18"/>
<text text-anchor="middle" x="703" y="-156.57" font-family="Times New Roman,serif" font-size="14.00">xn</text>
</g>
<!-- xm&#45;&gt;xn -->
<g id="edge64" class="edge">
<title>xm&#45;&gt;xn</title>
<path fill="none" stroke="black" d="M680.87,-216.41C684.16,-208.48 688.18,-198.78 691.88,-189.84"/>
<polygon fill="black" stroke="black" points="695,-191.45 695.6,-180.87 688.54,-188.77 695,-191.45"/>
</g>
<!-- kl -->
<g id="node18" class="node">
<title>kl</title>
<ellipse fill="none" stroke="black" cx="1389" cy="-306" rx="27" ry="18"/>
<text text-anchor="middle" x="1389" y="-300.57" font-family="Times New Roman,serif" font-size="14.00">kl</text>
</g>
<!-- kl&#45;&gt;hl -->
<g id="edge15" class="edge">
<title>kl&#45;&gt;hl</title>
<path fill="none" stroke="black" d="M1401.23,-322.13C1420.05,-347.02 1454,-398.84 1454,-449 1454,-523 1454,-523 1454,-523 1454,-563.45 1462.98,-582.8 1435,-612 1412.18,-635.81 1320.64,-652.28 1267.92,-660"/>
<polygon fill="black" stroke="black" points="1267.58,-656.52 1258.17,-661.39 1268.57,-663.45 1267.58,-656.52"/>
</g>
<!-- hq -->
<g id="node19" class="node">
<title>hq</title>
<ellipse fill="none" stroke="black" cx="228" cy="-738" rx="27" ry="18"/>
<text text-anchor="middle" x="228" y="-732.58" font-family="Times New Roman,serif" font-size="14.00">hq</text>
</g>
<!-- xt -->
<g id="node20" class="node">
<title>xt</title>
<ellipse fill="none" stroke="black" cx="245" cy="-522" rx="27" ry="18"/>
<text text-anchor="middle" x="245" y="-516.58" font-family="Times New Roman,serif" font-size="14.00">xt</text>
</g>
<!-- hq&#45;&gt;xt -->
<g id="edge16" class="edge">
<title>hq&#45;&gt;xt</title>
<path fill="none" stroke="black" d="M229.36,-719.85C232.28,-683.14 239.15,-596.66 242.73,-551.53"/>
<polygon fill="black" stroke="black" points="246.21,-551.99 243.51,-541.74 239.23,-551.43 246.21,-551.99"/>
</g>
<!-- sp -->
<g id="node21" class="node">
<title>sp</title>
<ellipse fill="none" stroke="black" cx="150" cy="-306" rx="27" ry="18"/>
<text text-anchor="middle" x="150" y="-300.57" font-family="Times New Roman,serif" font-size="14.00">sp</text>
</g>
<!-- hq&#45;&gt;sp -->
<g id="edge17" class="edge">
<title>hq&#45;&gt;sp</title>
<path fill="none" stroke="black" d="M208.66,-725.19C176.14,-703.67 114,-654.75 114,-595 114,-595 114,-595 114,-449 114,-408.09 128.21,-362.54 138.78,-334.32"/>
<polygon fill="black" stroke="black" points="141.99,-335.7 142.34,-325.11 135.47,-333.17 141.99,-335.7"/>
</g>
<!-- gl -->
<g id="node22" class="node">
<title>gl</title>
<ellipse fill="none" stroke="black" cx="321" cy="-666" rx="27" ry="18"/>
<text text-anchor="middle" x="321" y="-660.58" font-family="Times New Roman,serif" font-size="14.00">gl</text>
</g>
<!-- hq&#45;&gt;gl -->
<g id="edge18" class="edge">
<title>hq&#45;&gt;gl</title>
<path fill="none" stroke="black" d="M245.49,-723.83C259.39,-713.37 279.05,-698.58 294.82,-686.7"/>
<polygon fill="black" stroke="black" points="296.49,-689.83 302.38,-681.02 292.28,-684.24 296.49,-689.83"/>
</g>
<!-- jd -->
<g id="node23" class="node">
<title>jd</title>
<ellipse fill="none" stroke="black" cx="812" cy="-666" rx="27" ry="18"/>
<text text-anchor="middle" x="812" y="-660.58" font-family="Times New Roman,serif" font-size="14.00">jd</text>
</g>
<!-- hq&#45;&gt;jd -->
<g id="edge19" class="edge">
<title>hq&#45;&gt;jd</title>
<path fill="none" stroke="black" d="M254.79,-734.14C325.7,-726.51 524.16,-704.86 689,-684 717.67,-680.37 750.05,-675.88 774.38,-672.43"/>
<polygon fill="black" stroke="black" points="774.73,-675.91 784.13,-671.04 773.74,-668.98 774.73,-675.91"/>
</g>
<!-- jl -->
<g id="node24" class="node">
<title>jl</title>
<ellipse fill="none" stroke="black" cx="260" cy="-882" rx="27" ry="18"/>
<text text-anchor="middle" x="260" y="-876.58" font-family="Times New Roman,serif" font-size="14.00">jl</text>
</g>
<!-- hq&#45;&gt;jl -->
<g id="edge20" class="edge">
<title>hq&#45;&gt;jl</title>
<path fill="none" stroke="black" d="M236.15,-755.24C244.1,-778.92 254.44,-823.27 259.11,-852.48"/>
<polygon fill="black" stroke="black" points="255.6,-852.68 260.48,-862.09 262.53,-851.7 255.6,-852.68"/>
</g>
<!-- ss -->
<g id="node25" class="node">
<title>ss</title>
<ellipse fill="none" stroke="black" cx="207" cy="-450" rx="27" ry="18"/>
<text text-anchor="middle" x="207" y="-444.57" font-family="Times New Roman,serif" font-size="14.00">ss</text>
</g>
<!-- hq&#45;&gt;ss -->
<g id="edge21" class="edge">
<title>hq&#45;&gt;ss</title>
<path fill="none" stroke="black" d="M225.89,-719.64C221.83,-685.36 212.95,-606.54 209,-540 207.81,-519.92 207.31,-497.24 207.11,-479.81"/>
<polygon fill="black" stroke="black" points="210.61,-479.89 207.03,-469.92 203.61,-479.95 210.61,-479.89"/>
</g>
<!-- mc -->
<g id="node26" class="node">
<title>mc</title>
<ellipse fill="none" stroke="black" cx="283" cy="-594" rx="27" ry="18"/>
<text text-anchor="middle" x="283" y="-588.58" font-family="Times New Roman,serif" font-size="14.00">mc</text>
</g>
<!-- hq&#45;&gt;mc -->
<g id="edge22" class="edge">
<title>hq&#45;&gt;mc</title>
<path fill="none" stroke="black" d="M234.53,-720.15C243.87,-696.03 261.17,-651.36 272.38,-622.43"/>
<polygon fill="black" stroke="black" points="275.59,-623.83 275.94,-613.24 269.06,-621.3 275.59,-623.83"/>
</g>
<!-- xt&#45;&gt;ss -->
<g id="edge65" class="edge">
<title>xt&#45;&gt;ss</title>
<path fill="none" stroke="black" d="M236.19,-504.76C231.73,-496.55 226.2,-486.37 221.16,-477.09"/>
<polygon fill="black" stroke="black" points="224.33,-475.6 216.49,-468.48 218.18,-478.94 224.33,-475.6"/>
</g>
<!-- gh -->
<g id="node56" class="node">
<title>gh</title>
<ellipse fill="none" stroke="black" cx="150" cy="-234" rx="27" ry="18"/>
<text text-anchor="middle" x="150" y="-228.57" font-family="Times New Roman,serif" font-size="14.00">gh</text>
</g>
<!-- sp&#45;&gt;gh -->
<g id="edge80" class="edge">
<title>sp&#45;&gt;gh</title>
<path fill="none" stroke="black" d="M150,-287.7C150,-280.41 150,-271.73 150,-263.54"/>
<polygon fill="black" stroke="black" points="153.5,-263.62 150,-253.62 146.5,-263.62 153.5,-263.62"/>
</g>
<!-- gl&#45;&gt;mc -->
<g id="edge71" class="edge">
<title>gl&#45;&gt;mc</title>
<path fill="none" stroke="black" d="M312.19,-648.76C307.73,-640.55 302.2,-630.37 297.16,-621.09"/>
<polygon fill="black" stroke="black" points="300.33,-619.6 292.49,-612.48 294.18,-622.94 300.33,-619.6"/>
</g>
<!-- jd&#45;&gt;zg -->
<g id="edge50" class="edge">
<title>jd&#45;&gt;zg</title>
<path fill="none" stroke="black" d="M831.63,-653.37C846.06,-643.9 865.15,-629.29 877,-612 889.44,-593.86 896.83,-570.02 901.03,-551.58"/>
<polygon fill="black" stroke="black" points="904.45,-552.34 903.05,-541.84 897.6,-550.92 904.45,-552.34"/>
</g>
<!-- jl&#45;&gt;hq -->
<g id="edge74" class="edge">
<title>jl&#45;&gt;hq</title>
<path fill="none" stroke="black" d="M251.74,-864.43C243.8,-840.64 233.51,-796.47 228.87,-767.41"/>
<polygon fill="black" stroke="black" points="232.39,-767.25 227.51,-757.84 225.46,-768.24 232.39,-767.25"/>
</g>
<!-- js -->
<g id="node55" class="node">
<title>js</title>
<ellipse fill="none" stroke="black" cx="292" cy="-810" rx="27" ry="18"/>
<text text-anchor="middle" x="292" y="-804.58" font-family="Times New Roman,serif" font-size="14.00">js</text>
</g>
<!-- jl&#45;&gt;js -->
<g id="edge75" class="edge">
<title>jl&#45;&gt;js</title>
<path fill="none" stroke="black" d="M267.58,-864.41C271.21,-856.48 275.64,-846.78 279.73,-837.84"/>
<polygon fill="black" stroke="black" points="282.87,-839.4 283.84,-828.85 276.5,-836.49 282.87,-839.4"/>
</g>
<!-- mz -->
<g id="node37" class="node">
<title>mz</title>
<ellipse fill="none" stroke="black" cx="169" cy="-378" rx="27" ry="18"/>
<text text-anchor="middle" x="169" y="-372.57" font-family="Times New Roman,serif" font-size="14.00">mz</text>
</g>
<!-- ss&#45;&gt;mz -->
<g id="edge34" class="edge">
<title>ss&#45;&gt;mz</title>
<path fill="none" stroke="black" d="M198.19,-432.76C193.73,-424.55 188.2,-414.37 183.16,-405.09"/>
<polygon fill="black" stroke="black" points="186.33,-403.6 178.49,-396.48 180.18,-406.94 186.33,-403.6"/>
</g>
<!-- mc&#45;&gt;xt -->
<g id="edge32" class="edge">
<title>mc&#45;&gt;xt</title>
<path fill="none" stroke="black" d="M274.19,-576.76C269.73,-568.55 264.2,-558.37 259.16,-549.09"/>
<polygon fill="black" stroke="black" points="262.33,-547.6 254.49,-540.48 256.18,-550.94 262.33,-547.6"/>
</g>
<!-- xn&#45;&gt;bc -->
<g id="edge23" class="edge">
<title>xn&#45;&gt;bc</title>
<path fill="none" stroke="black" d="M711.68,-179.09C724.75,-204.88 748,-257.42 748,-305 748,-523 748,-523 748,-523 748,-573.05 706.73,-618.81 678.59,-644.2"/>
<polygon fill="black" stroke="black" points="676.36,-641.5 671.12,-650.71 680.96,-646.77 676.36,-641.5"/>
</g>
<!-- mv -->
<g id="node28" class="node">
<title>mv</title>
<ellipse fill="none" stroke="black" cx="703" cy="-90" rx="27" ry="18"/>
<text text-anchor="middle" x="703" y="-84.58" font-family="Times New Roman,serif" font-size="14.00">mv</text>
</g>
<!-- xn&#45;&gt;mv -->
<g id="edge24" class="edge">
<title>xn&#45;&gt;mv</title>
<path fill="none" stroke="black" d="M703,-143.7C703,-136.41 703,-127.73 703,-119.54"/>
<polygon fill="black" stroke="black" points="706.5,-119.62 703,-109.62 699.5,-119.62 706.5,-119.62"/>
</g>
<!-- mv&#45;&gt;bc -->
<g id="edge27" class="edge">
<title>mv&#45;&gt;bc</title>
<path fill="none" stroke="black" d="M718.22,-105.13C742.18,-128.99 786,-179.89 786,-233 786,-523 786,-523 786,-523 786,-582.22 723.61,-626.93 684.3,-649.23"/>
<polygon fill="black" stroke="black" points="682.79,-646.06 675.7,-653.94 686.15,-652.2 682.79,-646.06"/>
</g>
<!-- pp -->
<g id="node31" class="node">
<title>pp</title>
<ellipse fill="none" stroke="black" cx="594" cy="-18" rx="27" ry="18"/>
<text text-anchor="middle" x="594" y="-12.57" font-family="Times New Roman,serif" font-size="14.00">pp</text>
</g>
<!-- mv&#45;&gt;pp -->
<g id="edge28" class="edge">
<title>mv&#45;&gt;pp</title>
<path fill="none" stroke="black" d="M684.01,-76.81C666.98,-65.87 641.74,-49.66 622.32,-37.19"/>
<polygon fill="black" stroke="black" points="624.35,-34.33 614.04,-31.87 620.57,-40.22 624.35,-34.33"/>
</g>
<!-- dp -->
<g id="node29" class="node">
<title>dp</title>
<ellipse fill="none" stroke="black" cx="1585" cy="-234" rx="27" ry="18"/>
<text text-anchor="middle" x="1585" y="-228.57" font-family="Times New Roman,serif" font-size="14.00">dp</text>
</g>
<!-- dp&#45;&gt;ql -->
<g id="edge25" class="edge">
<title>dp&#45;&gt;ql</title>
<path fill="none" stroke="black" d="M1568.37,-248.38C1541.62,-271.52 1492,-321.89 1492,-377 1492,-811 1492,-811 1492,-811 1492,-853.34 1495.11,-871.04 1526,-900 1562.47,-934.2 1620.63,-946.34 1658.81,-950.65"/>
<polygon fill="black" stroke="black" points="1658.18,-954.1 1668.47,-951.6 1658.86,-947.14 1658.18,-954.1"/>
</g>
<!-- hh -->
<g id="node30" class="node">
<title>hh</title>
<ellipse fill="none" stroke="black" cx="1897" cy="-162" rx="27" ry="18"/>
<text text-anchor="middle" x="1897" y="-156.57" font-family="Times New Roman,serif" font-size="14.00">hh</text>
</g>
<!-- dp&#45;&gt;hh -->
<g id="edge26" class="edge">
<title>dp&#45;&gt;hh</title>
<path fill="none" stroke="black" d="M1610.53,-227.27C1665.75,-214.88 1796.42,-185.57 1860.41,-171.21"/>
<polygon fill="black" stroke="black" points="1861.08,-174.65 1870.08,-169.04 1859.55,-167.81 1861.08,-174.65"/>
</g>
<!-- hh&#45;&gt;ql -->
<g id="edge43" class="edge">
<title>hh&#45;&gt;ql</title>
<path fill="none" stroke="black" d="M1900.36,-179.97C1905.31,-206.52 1914,-259.56 1914,-305 1914,-811 1914,-811 1914,-811 1914,-895.81 1796.52,-932.69 1734.44,-946.26"/>
<polygon fill="black" stroke="black" points="1733.74,-942.83 1724.66,-948.29 1735.16,-949.69 1733.74,-942.83"/>
</g>
<!-- vb -->
<g id="node42" class="node">
<title>vb</title>
<ellipse fill="none" stroke="black" cx="1924" cy="-90" rx="27" ry="18"/>
<text text-anchor="middle" x="1924" y="-84.58" font-family="Times New Roman,serif" font-size="14.00">vb</text>
</g>
<!-- hh&#45;&gt;vb -->
<g id="edge44" class="edge">
<title>hh&#45;&gt;vb</title>
<path fill="none" stroke="black" d="M1903.54,-144.05C1906.52,-136.32 1910.13,-126.96 1913.48,-118.27"/>
<polygon fill="black" stroke="black" points="1916.65,-119.79 1916.98,-109.2 1910.12,-117.27 1916.65,-119.79"/>
</g>
<!-- pp&#45;&gt;bc -->
<g id="edge70" class="edge">
<title>pp&#45;&gt;bc</title>
<path fill="none" stroke="black" d="M575.19,-31.41C544.25,-53.48 486,-102.77 486,-161 486,-523 486,-523 486,-523 486,-569.04 504.83,-581.15 539,-612 561.52,-632.33 593.19,-646.21 617.43,-654.65"/>
<polygon fill="black" stroke="black" points="616.3,-657.96 626.89,-657.77 618.5,-651.31 616.3,-657.96"/>
</g>
<!-- rg -->
<g id="node32" class="node">
<title>rg</title>
<ellipse fill="none" stroke="black" cx="93" cy="-162" rx="27" ry="18"/>
<text text-anchor="middle" x="93" y="-156.57" font-family="Times New Roman,serif" font-size="14.00">rg</text>
</g>
<!-- rg&#45;&gt;hq -->
<g id="edge29" class="edge">
<title>rg&#45;&gt;hq</title>
<path fill="none" stroke="black" d="M89.64,-179.97C84.69,-206.52 76,-259.56 76,-305 76,-595 76,-595 76,-595 76,-640.59 94.17,-652.37 127,-684 146.06,-702.37 172.76,-716.01 193.92,-724.85"/>
<polygon fill="black" stroke="black" points="192.42,-728.02 203.01,-728.47 195.02,-721.51 192.42,-728.02"/>
</g>
<!-- zq -->
<g id="node33" class="node">
<title>zq</title>
<ellipse fill="none" stroke="black" cx="55" cy="-90" rx="27" ry="18"/>
<text text-anchor="middle" x="55" y="-84.58" font-family="Times New Roman,serif" font-size="14.00">zq</text>
</g>
<!-- rg&#45;&gt;zq -->
<g id="edge30" class="edge">
<title>rg&#45;&gt;zq</title>
<path fill="none" stroke="black" d="M84.19,-144.76C79.73,-136.55 74.2,-126.37 69.16,-117.09"/>
<polygon fill="black" stroke="black" points="72.33,-115.6 64.49,-108.48 66.18,-118.94 72.33,-115.6"/>
</g>
<!-- zq&#45;&gt;hq -->
<g id="edge39" class="edge">
<title>zq&#45;&gt;hq</title>
<path fill="none" stroke="black" d="M51.64,-107.97C46.69,-134.52 38,-187.56 38,-233 38,-595 38,-595 38,-595 38,-640.59 54.35,-654.37 89,-684 118.33,-709.08 160.77,-722.93 191.03,-730.13"/>
<polygon fill="black" stroke="black" points="189.98,-733.48 200.5,-732.24 191.5,-726.65 189.98,-733.48"/>
</g>
<!-- qj -->
<g id="node40" class="node">
<title>qj</title>
<ellipse fill="none" stroke="black" cx="28" cy="-18" rx="27" ry="18"/>
<text text-anchor="middle" x="28" y="-12.57" font-family="Times New Roman,serif" font-size="14.00">qj</text>
</g>
<!-- zq&#45;&gt;qj -->
<g id="edge40" class="edge">
<title>zq&#45;&gt;qj</title>
<path fill="none" stroke="black" d="M48.46,-72.05C45.48,-64.32 41.87,-54.96 38.52,-46.27"/>
<polygon fill="black" stroke="black" points="41.88,-45.27 35.02,-37.2 35.35,-47.79 41.88,-45.27"/>
</g>
<!-- lm&#45;&gt;zg -->
<g id="edge31" class="edge">
<title>lm&#45;&gt;zg</title>
<path fill="none" stroke="black" d="M1007.02,-581.44C987.67,-570.24 958.07,-553.12 935.91,-540.3"/>
<polygon fill="black" stroke="black" points="937.73,-537.31 927.32,-535.33 934.22,-543.37 937.73,-537.31"/>
</g>
<!-- rd -->
<g id="node36" class="node">
<title>rd</title>
<ellipse fill="none" stroke="black" cx="1361" cy="-522" rx="27" ry="18"/>
<text text-anchor="middle" x="1361" y="-516.58" font-family="Times New Roman,serif" font-size="14.00">rd</text>
</g>
<!-- ct&#45;&gt;rd -->
<g id="edge33" class="edge">
<title>ct&#45;&gt;rd</title>
<path fill="none" stroke="black" d="M1390.19,-576.76C1385.73,-568.55 1380.2,-558.37 1375.16,-549.09"/>
<polygon fill="black" stroke="black" points="1378.33,-547.6 1370.49,-540.48 1372.18,-550.94 1378.33,-547.6"/>
</g>
<!-- rd&#45;&gt;hl -->
<g id="edge72" class="edge">
<title>rd&#45;&gt;hl</title>
<path fill="none" stroke="black" d="M1356.49,-540.15C1350.7,-559.47 1339.05,-590.93 1320,-612 1304.45,-629.2 1281.97,-642.44 1263.37,-651.39"/>
<polygon fill="black" stroke="black" points="1261.96,-648.19 1254.32,-655.53 1264.87,-654.55 1261.96,-648.19"/>
</g>
<!-- zz -->
<g id="node54" class="node">
<title>zz</title>
<ellipse fill="none" stroke="black" cx="1342" cy="-450" rx="27" ry="18"/>
<text text-anchor="middle" x="1342" y="-444.57" font-family="Times New Roman,serif" font-size="14.00">zz</text>
</g>
<!-- rd&#45;&gt;zz -->
<g id="edge73" class="edge">
<title>rd&#45;&gt;zz</title>
<path fill="none" stroke="black" d="M1356.4,-504.05C1354.35,-496.49 1351.87,-487.37 1349.56,-478.85"/>
<polygon fill="black" stroke="black" points="1352.95,-477.98 1346.95,-469.25 1346.2,-479.82 1352.95,-477.98"/>
</g>
<!-- mz&#45;&gt;hq -->
<g id="edge37" class="edge">
<title>mz&#45;&gt;hq</title>
<path fill="none" stroke="black" d="M165.64,-395.97C160.69,-422.52 152,-475.56 152,-521 152,-595 152,-595 152,-595 152,-641.27 183.76,-687.06 206.22,-713.65"/>
<polygon fill="black" stroke="black" points="203.5,-715.86 212.71,-721.09 208.77,-711.25 203.5,-715.86"/>
</g>
<!-- mz&#45;&gt;sp -->
<g id="edge38" class="edge">
<title>mz&#45;&gt;sp</title>
<path fill="none" stroke="black" d="M164.4,-360.05C162.35,-352.49 159.87,-343.37 157.56,-334.85"/>
<polygon fill="black" stroke="black" points="160.95,-333.98 154.95,-325.25 154.2,-335.82 160.95,-333.98"/>
</g>
<!-- rt&#45;&gt;hl -->
<g id="edge35" class="edge">
<title>rt&#45;&gt;hl</title>
<path fill="none" stroke="black" d="M1121.46,-604.44C1143.73,-615.22 1177.58,-633.09 1201.65,-646.63"/>
<polygon fill="black" stroke="black" points="1199.88,-649.66 1210.3,-651.57 1203.35,-643.58 1199.88,-649.66"/>
</g>
<!-- rt&#45;&gt;kk -->
<g id="edge36" class="edge">
<title>rt&#45;&gt;kk</title>
<path fill="none" stroke="black" d="M1107.81,-576.76C1112.27,-568.55 1117.8,-558.37 1122.84,-549.09"/>
<polygon fill="black" stroke="black" points="1125.82,-550.94 1127.51,-540.48 1119.67,-547.6 1125.82,-550.94"/>
</g>
<!-- kk&#45;&gt;ld -->
<g id="edge42" class="edge">
<title>kk&#45;&gt;ld</title>
<path fill="none" stroke="black" d="M1141.6,-504.05C1143.65,-496.49 1146.13,-487.37 1148.44,-478.85"/>
<polygon fill="black" stroke="black" points="1151.8,-479.82 1151.05,-469.25 1145.05,-477.98 1151.8,-479.82"/>
</g>
<!-- qj&#45;&gt;hq -->
<g id="edge68" class="edge">
<title>qj&#45;&gt;hq</title>
<path fill="none" stroke="black" d="M22.47,-35.84C14.31,-62.21 0,-115.02 0,-161 0,-595 0,-595 0,-595 0,-640.15 13.82,-655.69 49,-684 89.84,-716.87 150.54,-729.36 189.7,-734.11"/>
<polygon fill="black" stroke="black" points="189.29,-737.58 199.6,-735.18 190.04,-730.62 189.29,-737.58"/>
</g>
<!-- ld&#45;&gt;nv -->
<g id="edge69" class="edge">
<title>ld&#45;&gt;nv</title>
<path fill="none" stroke="black" d="M1156,-431.7C1156,-424.41 1156,-415.73 1156,-407.54"/>
<polygon fill="black" stroke="black" points="1159.5,-407.62 1156,-397.62 1152.5,-407.62 1159.5,-407.62"/>
</g>
<!-- vb&#45;&gt;ql -->
<g id="edge81" class="edge">
<title>vb&#45;&gt;ql</title>
<path fill="none" stroke="black" d="M1929.53,-107.84C1937.69,-134.21 1952,-187.02 1952,-233 1952,-811 1952,-811 1952,-811 1952,-909.16 1805.99,-940.07 1734.94,-949.3"/>
<polygon fill="black" stroke="black" points="1734.82,-945.79 1725.31,-950.47 1735.66,-952.74 1734.82,-945.79"/>
</g>
<!-- kc -->
<g id="node43" class="node">
<title>kc</title>
<ellipse fill="none" stroke="black" cx="1342" cy="-378" rx="27" ry="18"/>
<text text-anchor="middle" x="1342" y="-372.57" font-family="Times New Roman,serif" font-size="14.00">kc</text>
</g>
<!-- kc&#45;&gt;hl -->
<g id="edge45" class="edge">
<title>kc&#45;&gt;hl</title>
<path fill="none" stroke="black" d="M1329.74,-394.52C1322.12,-404.72 1312.56,-418.62 1306,-432 1271.59,-502.16 1247.44,-591.58 1236.53,-636.51"/>
<polygon fill="black" stroke="black" points="1233.13,-635.68 1234.22,-646.22 1239.94,-637.3 1233.13,-635.68"/>
</g>
<!-- kc&#45;&gt;kl -->
<g id="edge46" class="edge">
<title>kc&#45;&gt;kl</title>
<path fill="none" stroke="black" d="M1352.67,-361.12C1358.37,-352.61 1365.54,-341.94 1372,-332.32"/>
<polygon fill="black" stroke="black" points="1374.86,-334.33 1377.53,-324.08 1369.05,-330.43 1374.86,-334.33"/>
</g>
<!-- tt&#45;&gt;bc -->
<g id="edge97" class="edge">
<title>tt&#45;&gt;bc</title>
<path fill="none" stroke="black" d="M655.22,-396.25C655.67,-434.88 656.52,-531.31 655,-612 654.85,-619.95 654.57,-628.56 654.27,-636.49"/>
<polygon fill="black" stroke="black" points="650.78,-636.17 653.87,-646.31 657.78,-636.46 650.78,-636.17"/>
</g>
<!-- tt&#45;&gt;xg -->
<g id="edge98" class="edge">
<title>tt&#45;&gt;xg</title>
<path fill="none" stroke="black" d="M659.6,-360.05C661.65,-352.49 664.13,-343.37 666.44,-334.85"/>
<polygon fill="black" stroke="black" points="669.8,-335.82 669.05,-325.25 663.05,-333.98 669.8,-335.82"/>
</g>
<!-- fh&#45;&gt;bc -->
<g id="edge48" class="edge">
<title>fh&#45;&gt;bc</title>
<path fill="none" stroke="black" d="M617.82,-791.87C624.58,-767.88 636.95,-723.99 645.07,-695.16"/>
<polygon fill="black" stroke="black" points="648.41,-696.22 647.75,-685.65 641.67,-694.32 648.41,-696.22"/>
</g>
<!-- jn -->
<g id="node46" class="node">
<title>jn</title>
<ellipse fill="none" stroke="black" cx="575" cy="-738" rx="27" ry="18"/>
<text text-anchor="middle" x="575" y="-732.58" font-family="Times New Roman,serif" font-size="14.00">jn</text>
</g>
<!-- fh&#45;&gt;jn -->
<g id="edge49" class="edge">
<title>fh&#45;&gt;jn</title>
<path fill="none" stroke="black" d="M604.19,-792.76C599.73,-784.55 594.2,-774.37 589.16,-765.09"/>
<polygon fill="black" stroke="black" points="592.33,-763.6 584.49,-756.48 586.18,-766.94 592.33,-763.6"/>
</g>
<!-- jn&#45;&gt;bc -->
<g id="edge78" class="edge">
<title>jn&#45;&gt;bc</title>
<path fill="none" stroke="black" d="M590.41,-723.17C601.45,-713.26 616.53,-699.73 629.12,-688.43"/>
<polygon fill="black" stroke="black" points="631.12,-691.34 636.23,-682.05 626.45,-686.13 631.12,-691.34"/>
</g>
<!-- jn&#45;&gt;tn -->
<g id="edge79" class="edge">
<title>jn&#45;&gt;tn</title>
<path fill="none" stroke="black" d="M560.4,-722.6C535.28,-697.83 483.71,-646.98 453.81,-617.5"/>
<polygon fill="black" stroke="black" points="456.29,-615.03 446.72,-610.5 451.38,-620.01 456.29,-615.03"/>
</g>
<!-- broadcaster -->
<g id="node47" class="node">
<title>broadcaster</title>
<ellipse fill="none" stroke="black" cx="851" cy="-954" rx="54.56" ry="18"/>
<text text-anchor="middle" x="851" y="-948.58" font-family="Times New Roman,serif" font-size="14.00">broadcaster</text>
</g>
<!-- broadcaster&#45;&gt;rp -->
<g id="edge51" class="edge">
<title>broadcaster&#45;&gt;rp</title>
<path fill="none" stroke="black" d="M817.45,-939.5C786.67,-927.12 741.31,-908.87 710.53,-896.49"/>
<polygon fill="black" stroke="black" points="711.89,-893.26 701.31,-892.78 709.28,-899.76 711.89,-893.26"/>
</g>
<!-- broadcaster&#45;&gt;jl -->
<g id="edge52" class="edge">
<title>broadcaster&#45;&gt;jl</title>
<path fill="none" stroke="black" d="M800.1,-946.97C683.75,-933.19 400.49,-899.64 297.89,-887.49"/>
<polygon fill="black" stroke="black" points="298.42,-884.03 288.08,-886.33 297.6,-890.98 298.42,-884.03"/>
</g>
<!-- broadcaster&#45;&gt;rt -->
<g id="edge53" class="edge">
<title>broadcaster&#45;&gt;rt</title>
<path fill="none" stroke="black" d="M870.6,-936.74C896.88,-914.25 943.94,-871.47 976,-828 1026.56,-759.45 1068.65,-667.34 1087.84,-622.22"/>
<polygon fill="black" stroke="black" points="1090.98,-623.77 1091.63,-613.2 1084.53,-621.06 1090.98,-623.77"/>
</g>
<!-- broadcaster&#45;&gt;jr -->
<g id="edge54" class="edge">
<title>broadcaster&#45;&gt;jr</title>
<path fill="none" stroke="black" d="M902.91,-948.05C1042.75,-934.71 1425.02,-898.26 1547.04,-886.62"/>
<polygon fill="black" stroke="black" points="1547.21,-890.12 1556.83,-885.69 1546.55,-883.15 1547.21,-890.12"/>
</g>
<!-- jr&#45;&gt;ql -->
<g id="edge76" class="edge">
<title>jr&#45;&gt;ql</title>
<path fill="none" stroke="black" d="M1606.38,-893.27C1625.03,-903.74 1651.84,-920.25 1671.55,-933.26"/>
<polygon fill="black" stroke="black" points="1669.35,-935.99 1679.61,-938.66 1673.25,-930.18 1669.35,-935.99"/>
</g>
<!-- jr&#45;&gt;xs -->
<g id="edge77" class="edge">
<title>jr&#45;&gt;xs</title>
<path fill="none" stroke="black" d="M1605.15,-869.44C1624.78,-858.18 1654.86,-840.92 1677.24,-828.07"/>
<polygon fill="black" stroke="black" points="1678.98,-831.11 1685.92,-823.1 1675.5,-825.04 1678.98,-831.11"/>
</g>
<!-- cp -->
<g id="node49" class="node">
<title>cp</title>
<ellipse fill="none" stroke="black" cx="1764" cy="-594" rx="27" ry="18"/>
<text text-anchor="middle" x="1764" y="-588.58" font-family="Times New Roman,serif" font-size="14.00">cp</text>
</g>
<!-- cp&#45;&gt;ql -->
<g id="edge55" class="edge">
<title>cp&#45;&gt;ql</title>
<path fill="none" stroke="black" d="M1777.92,-609.84C1799.35,-634.32 1838,-685.57 1838,-737 1838,-811 1838,-811 1838,-811 1838,-872.36 1770.88,-916.65 1729.26,-938.21"/>
<polygon fill="black" stroke="black" points="1727.77,-935.04 1720.39,-942.64 1730.9,-941.3 1727.77,-935.04"/>
</g>
<!-- cp&#45;&gt;ln -->
<g id="edge56" class="edge">
<title>cp&#45;&gt;ln</title>
<path fill="none" stroke="black" d="M1746.58,-580.16C1732.34,-569.67 1711.97,-554.66 1695.68,-542.66"/>
<polygon fill="black" stroke="black" points="1697.98,-540.01 1687.85,-536.89 1693.83,-545.64 1697.98,-540.01"/>
</g>
<!-- ln&#45;&gt;rr -->
<g id="edge67" class="edge">
<title>ln&#45;&gt;rr</title>
<path fill="none" stroke="black" d="M1662.46,-504.05C1659.48,-496.32 1655.87,-486.96 1652.52,-478.27"/>
<polygon fill="black" stroke="black" points="1655.88,-477.27 1649.02,-469.2 1649.35,-479.79 1655.88,-477.27"/>
</g>
<!-- xs&#45;&gt;mg -->
<g id="edge99" class="edge">
<title>xs&#45;&gt;mg</title>
<path fill="none" stroke="black" d="M1715.81,-792.76C1720.27,-784.55 1725.8,-774.37 1730.84,-765.09"/>
<polygon fill="black" stroke="black" points="1733.82,-766.94 1735.51,-756.48 1727.67,-763.6 1733.82,-766.94"/>
</g>
<!-- lt -->
<g id="node53" class="node">
<title>lt</title>
<ellipse fill="none" stroke="black" cx="1764" cy="-666" rx="27" ry="18"/>
<text text-anchor="middle" x="1764" y="-660.58" font-family="Times New Roman,serif" font-size="14.00">lt</text>
</g>
<!-- mg&#45;&gt;lt -->
<g id="edge66" class="edge">
<title>mg&#45;&gt;lt</title>
<path fill="none" stroke="black" d="M1749.6,-720.05C1751.65,-712.49 1754.13,-703.37 1756.44,-694.85"/>
<polygon fill="black" stroke="black" points="1759.8,-695.82 1759.05,-685.25 1753.05,-693.98 1759.8,-695.82"/>
</g>
<!-- lt&#45;&gt;ql -->
<g id="edge100" class="edge">
<title>lt&#45;&gt;ql</title>
<path fill="none" stroke="black" d="M1770.89,-683.86C1774.7,-694.12 1779.06,-707.59 1781,-720 1783.47,-735.81 1783.16,-740.15 1781,-756 1772.03,-821.81 1771.79,-841.14 1741,-900 1735.26,-910.97 1726.97,-921.73 1719.13,-930.66"/>
<polygon fill="black" stroke="black" points="1716.76,-928.07 1712.58,-937.81 1721.92,-932.8 1716.76,-928.07"/>
</g>
<!-- lt&#45;&gt;cp -->
<g id="edge101" class="edge">
<title>lt&#45;&gt;cp</title>
<path fill="none" stroke="black" d="M1764,-647.7C1764,-640.41 1764,-631.73 1764,-623.54"/>
<polygon fill="black" stroke="black" points="1767.5,-623.62 1764,-613.62 1760.5,-623.62 1767.5,-623.62"/>
</g>
<!-- zz&#45;&gt;hl -->
<g id="edge102" class="edge">
<title>zz&#45;&gt;hl</title>
<path fill="none" stroke="black" d="M1336.68,-467.94C1325.21,-503.98 1297.88,-587.02 1282,-612 1274.59,-623.66 1264.27,-634.85 1254.77,-643.91"/>
<polygon fill="black" stroke="black" points="1252.51,-641.24 1247.51,-650.57 1257.24,-646.4 1252.51,-641.24"/>
</g>
<!-- zz&#45;&gt;kc -->
<g id="edge103" class="edge">
<title>zz&#45;&gt;kc</title>
<path fill="none" stroke="black" d="M1342,-431.7C1342,-424.41 1342,-415.73 1342,-407.54"/>
<polygon fill="black" stroke="black" points="1345.5,-407.62 1342,-397.62 1338.5,-407.62 1345.5,-407.62"/>
</g>
<!-- js&#45;&gt;hq -->
<g id="edge86" class="edge">
<title>js&#45;&gt;hq</title>
<path fill="none" stroke="black" d="M278.43,-794.15C269.94,-784.87 258.83,-772.73 249.2,-762.19"/>
<polygon fill="black" stroke="black" points="251.91,-759.96 242.57,-754.94 246.74,-764.68 251.91,-759.96"/>
</g>
<!-- js&#45;&gt;gl -->
<g id="edge87" class="edge">
<title>js&#45;&gt;gl</title>
<path fill="none" stroke="black" d="M295.5,-791.87C300.4,-767.88 309.36,-723.99 315.25,-695.16"/>
<polygon fill="black" stroke="black" points="318.61,-696.17 317.19,-685.67 311.76,-694.77 318.61,-696.17"/>
</g>
<!-- gh&#45;&gt;hq -->
<g id="edge82" class="edge">
<title>gh&#45;&gt;hq</title>
<path fill="none" stroke="black" d="M176.37,-238.87C235.98,-249.27 376,-283.63 376,-377 376,-595 376,-595 376,-595 376,-635.45 382.92,-652.95 357,-684 334.12,-711.4 294.81,-724.82 265.58,-731.27"/>
<polygon fill="black" stroke="black" points="265.14,-727.79 256.02,-733.19 266.51,-734.66 265.14,-727.79"/>
</g>
<!-- gh&#45;&gt;rg -->
<g id="edge83" class="edge">
<title>gh&#45;&gt;rg</title>
<path fill="none" stroke="black" d="M137.63,-217.81C130.31,-208.82 120.87,-197.23 112.57,-187.03"/>
<polygon fill="black" stroke="black" points="115.33,-184.88 106.3,-179.33 109.9,-189.3 115.33,-184.88"/>
</g>
<!-- vh&#45;&gt;ql -->
<g id="edge84" class="edge">
<title>vh&#45;&gt;ql</title>
<path fill="none" stroke="black" d="M1574.4,-322.84C1558.41,-348.28 1530,-400.36 1530,-449 1530,-811 1530,-811 1530,-811 1530,-851.45 1522.37,-869.56 1549,-900 1576.73,-931.7 1624.8,-944.44 1658.62,-949.56"/>
<polygon fill="black" stroke="black" points="1658.05,-953.02 1668.43,-950.87 1658.98,-946.08 1658.05,-953.02"/>
</g>
<!-- vh&#45;&gt;dp -->
<g id="edge85" class="edge">
<title>vh&#45;&gt;dp</title>
<path fill="none" stroke="black" d="M1585,-287.7C1585,-280.41 1585,-271.73 1585,-263.54"/>
<polygon fill="black" stroke="black" points="1588.5,-263.62 1585,-253.62 1581.5,-263.62 1588.5,-263.62"/>
</g>
<!-- ck&#45;&gt;hl -->
<g id="edge105" class="edge">
<title>ck&#45;&gt;hl</title>
<path fill="none" stroke="black" d="M1272.79,-721.46C1265.89,-712.67 1257.09,-701.48 1249.27,-691.53"/>
<polygon fill="black" stroke="black" points="1252.04,-689.38 1243.11,-683.68 1246.53,-693.71 1252.04,-689.38"/>
</g>
<!-- ck&#45;&gt;ct -->
<g id="edge106" class="edge">
<title>ck&#45;&gt;ct</title>
<path fill="none" stroke="black" d="M1297.42,-721.53C1317.2,-696.89 1356.05,-648.5 1379.55,-619.23"/>
<polygon fill="black" stroke="black" points="1382.12,-621.62 1385.65,-611.63 1376.66,-617.23 1382.12,-621.62"/>
</g>
</g>
</svg>
